<svg width="175" height="177" viewBox="0 0 175 177" fill="none" xmlns="http://www.w3.org/2000/svg">
<g filter="url(#filter0_d_4_2)">
<path d="M70.0254 158V94C70.0254 93 4.52538 20 6.02538 21.5C7.33045 22.8051 67.5254 80.2092 70.0254 82.6046C72.5254 85 74.5254 85 77.0728 82.6046C79.6203 80.2092 142.234 21.5 142.234 21.5C146.525 17 141.025 11.5 136.525 15.5C136.525 15.5 124.025 27 121.525 29.5C120.992 30.033 120.596 30.4257 120.302 30.6709C112.902 37.7472 74.4291 74.5 73.5254 74.5C72.5254 74.5 24.5254 27 24.5254 27C24.5254 27 40.0254 24.5 49.5254 24.5C59.0254 24.5 82.5254 29.5 96.5254 30.5C106.93 31.2432 115.678 30.3294 119.485 29.811C119.487 29.1596 119.525 28.2279 119.525 27C119.525 10 132.025 2 144.525 2C157.025 2 168.025 13.3303 168.025 27C168.025 40.6698 156.525 51.0001 144.525 51C144.525 51 132.461 51.5 124.535 42L142.234 21.5C142.234 21.5 77.0728 93 77.0728 94C77.0728 95 78.0254 156 78.0254 158C78.0254 160 106.525 164.5 112.025 165.5C117.525 166.5 30.5254 166.5 35.5254 165.5C40.5254 164.5 70.0254 160 70.0254 158Z" fill="url(#paint0_linear_4_2)"/>
<path d="M142.234 21.5C142.234 21.5 77.0728 93 77.0728 94C77.0728 95 78.0254 156 78.0254 158C78.0254 160 106.525 164.5 112.025 165.5C117.525 166.5 30.5254 166.5 35.5254 165.5C40.5254 164.5 70.0254 160 70.0254 158C70.0254 156 70.0254 95 70.0254 94C70.0254 93 4.52538 20 6.02538 21.5C7.33045 22.8051 67.5254 80.2092 70.0254 82.6046C72.5254 85 74.5254 85 77.0728 82.6046C79.6203 80.2092 142.234 21.5 142.234 21.5ZM142.234 21.5C146.525 17 141.025 11.5 136.525 15.5C136.525 15.5 124.025 27 121.525 29.5M142.234 21.5L124.535 42C132.461 51.5 144.525 51 144.525 51C156.525 51.0001 168.025 40.6698 168.025 27C168.025 13.3303 157.025 2 144.525 2C132.025 2 119.525 10 119.525 27C119.525 31.4131 119.025 32 121.525 29.5M121.525 29.5C121.525 29.5 74.5254 74.5 73.5254 74.5C72.5254 74.5 24.5254 27 24.5254 27C24.5254 27 40.0254 24.5 49.5254 24.5C59.0254 24.5 82.5254 29.5 96.5254 30.5C110.525 31.5 121.525 29.5 121.525 29.5Z" stroke="url(#paint1_linear_4_2)" stroke-width="4"/>
</g>
<defs>
<filter id="filter0_d_4_2" x="0.051178" y="0" width="173.974" height="176.25" filterUnits="userSpaceOnUse" color-interpolation-filters="sRGB">
<feFlood flood-opacity="0" result="BackgroundImageFix"/>
<feColorMatrix in="SourceAlpha" type="matrix" values="0 0 0 0 0 0 0 0 0 0 0 0 0 0 0 0 0 0 127 0" result="hardAlpha"/>
<feOffset dy="4"/>
<feGaussianBlur stdDeviation="2"/>
<feComposite in2="hardAlpha" operator="out"/>
<feColorMatrix type="matrix" values="0 0 0 0 0 0 0 0 0 0 0 0 0 0 0 0 0 0 0.25 0"/>
<feBlend mode="normal" in2="BackgroundImageFix" result="effect1_dropShadow_4_2"/>
<feBlend mode="normal" in="SourceGraphic" in2="effect1_dropShadow_4_2" result="shape"/>
</filter>
<linearGradient id="paint0_linear_4_2" x1="6.02537" y1="166" x2="168.025" y2="166" gradientUnits="userSpaceOnUse">
<stop stop-color="#996D2E"/>
<stop offset="0.42" stop-color="#F5ECB5"/>
<stop offset="1" stop-color="#996D2E"/>
</linearGradient>
<linearGradient id="paint1_linear_4_2" x1="6.02537" y1="166" x2="168.025" y2="166" gradientUnits="userSpaceOnUse">
<stop stop-color="#996D2E"/>
<stop offset="0.42" stop-color="#F5ECB5"/>
<stop offset="1" stop-color="#996D2E"/>
</linearGradient>
</defs>
</svg>
